{"title":"Beneath.the.Blue.2010.720p.BRRip.H264.Feel-Free","uid":6065988,"size":1924703332,"categoryP":"video","categoryS":"hd___movies","magnet":"?xt=urn:btih:81100a5fb7a1c0b825b1b3687f13bb5ac8bd68b8&amp;dn=Beneath.the.Blue.2010.720p.BRRip.H264.Feel-Free&amp;tr=udp%3A%2F%2Ftracker.openbittorrent.com%3A80&amp;tr=udp%3A%2F%2Fopen.demonii.com%3A1337&amp;tr=udp%3A%2F%2Ftracker.coppersurfer.tk%3A6969&amp;tr=udp%3A%2F%2Fexodus.desync.com%3A6969","seeders":0,"leechers":4,"uploader":"hiest","files":9,"time":1293356806,"description":"Genre:Drama \nLanguage:English\nIMDb:http://www.imdb.com/title/tt1222698/\nSource:BluRay.x264-aAF\n\n\nFormat : MPEG-4\nFormat profile : Base Media\nCodec ID : isom\nFile size : 1.79 GiB\nDuration : 1h 32mn\nOverall bit rate : 2 763 Kbps\nMovie name : Beneath.the.Blue.2010.720p.BRRip.H264.Feel-Free\n\n\nVideo\nFormat settings, CABAC : Yes\nFormat settings, ReFrames : 4 frames\nCodec ID : avc1\nCodec ID/Info : Advanced Video Coding\nDuration : 1h 32mn\nBit rate mode : Variable\nBit rate : 2 400 Kbps\nWidth : 1 280 pixels\nHeight : 720 pixels\nDisplay aspect ratio : 16:9\nFrame rate mode : Constant\nFrame rate : 23.976 fps\nColor space : YUV\nChroma subsampling : 4:2:0\nBit depth : 8 bits\nScan type : Progressive\nBits/(Pixel*Frame) : 0.109\nStream size : 1.53 GiB (86%)\nWriting library : x264 \n\nAudio\nID : 2\nFormat : AAC\nFormat/Info : Advanced Audio Codec\nFormat version : Version 4\nFormat profile : LC\nCodec ID : 40\nDuration : 1h 32mn\nBit rate mode : Variable\nBit rate : 384 Kbps\nChannel(s) : 6 channels\nChannel positions : Front: L C R, Side: L R, LFE\nSampling rate : 48.0 KHz\nStream size : 254 MiB (14%)\n\n\n\nPlot:\nDolphin experts confront the US Navy when its sonar program is suspected of causing the animals' deaths\n\n\n\n\n\n\n================================== &lt;a href=&quot;\nhttp://thepiratebay.se/user/hiest&quot; rel=&quot;nofollow&quot; target=&quot;_NEW&quot;&gt;\nhttp://thepiratebay.se/user/hiest&lt;/a&gt;\n==================================\n\n\n\n\n\n\nScreenshots:\n &lt;a href=&quot;\nhttp://www.rapidhdd.com/images/646511vlcsnap-2010-12-26-09h44m11s54.png&quot; rel=&quot;nofollow&quot; target=&quot;_NEW&quot;&gt;\nhttp://www.rapidhdd.com/images/646511vlcsnap-2010-12-26-09h44m11s54.png&lt;/a&gt;\n &lt;a href=&quot;\nhttp://www.rapidhdd.com/images/344468vlcsnap-2010-12-26-09h45m26s17.png&quot; rel=&quot;nofollow&quot; target=&quot;_NEW&quot;&gt;\nhttp://www.rapidhdd.com/images/344468vlcsnap-2010-12-26-09h45m26s17.png&lt;/a&gt;\n &lt;a href=&quot;\nhttp://www.rapidhdd.com/images/4279vlcsnap-2010-12-26-09h45m58s0.png&quot; rel=&quot;nofollow&quot; target=&quot;_NEW&quot;&gt;\nhttp://www.rapidhdd.com/images/4279vlcsnap-2010-12-26-09h45m58s0.png&lt;/a&gt;\n &lt;a href=&quot;\nhttp://www.rapidhdd.com/images/551733vlcsnap-2010-12-26-09h46m27s124.png&quot; rel=&quot;nofollow&quot; target=&quot;_NEW&quot;&gt;\nhttp://www.rapidhdd.com/images/551733vlcsnap-2010-12-26-09h46m27s124.png&lt;/a&gt;\n &lt;a href=&quot;\nhttp://www.rapidhdd.com/images/184054vlcsnap-2010-12-26-09h47m44s133.png&quot; rel=&quot;nofollow&quot; target=&quot;_NEW&quot;&gt;\nhttp://www.rapidhdd.com/images/184054vlcsnap-2010-12-26-09h47m44s133.png&lt;/a&gt;","torrent":{"xt":"urn:btih:81100a5fb7a1c0b825b1b3687f13bb5ac8bd68b8","amp;dn":"Beneath.the.Blue.2010.720p.BRRip.H264.Feel-Free","amp;tr":["udp%3A%2F%2Ftracker.openbittorrent.com%3A80","udp%3A%2F%2Fopen.demonii.com%3A1337","udp%3A%2F%2Ftracker.coppersurfer.tk%3A6969","udp%3A%2F%2Fexodus.desync.com%3A6969"],"infoHash":"81100a5fb7a1c0b825b1b3687f13bb5ac8bd68b8","infoHashBuffer":{"type":"Buffer","data":[129,16,10,95,183,161,192,184,37,177,179,104,127,19,187,90,200,189,104,184]},"announce":[],"urlList":[]}}